<?xml version="1.0" encoding="UTF-8" standalone="no"?>
<!DOCTYPE svg PUBLIC "-//W3C//DTD SVG 1.1//EN"
 "http://www.w3.org/Graphics/SVG/1.1/DTD/svg11.dtd">
<!-- Generated by graphviz version 2.38.0 (20140413.2041)
 -->
<!-- Title: controllers_diagram Pages: 1 -->
<svg width="619pt" height="596pt"
 viewBox="0.00 0.00 619.00 595.50" xmlns="http://www.w3.org/2000/svg" xmlns:xlink="http://www.w3.org/1999/xlink">
<g id="graph0" class="graph" transform="scale(1 1) rotate(0) translate(225 354)">
<title>controllers_diagram</title>
<polygon fill="white" stroke="none" points="-225,241.5 -225,-354 394,-354 394,241.5 -225,241.5"/>
<!-- _diagram_info -->
<g id="node1" class="node"><title>_diagram_info</title>
<text text-anchor="start" x="178" y="-233.6" font-family="Times,serif" font-size="13.00">Controllers diagram</text>
<text text-anchor="start" x="178" y="-219.6" font-family="Times,serif" font-size="13.00">Date: Jun 06 2015 &#45; 19:33</text>
<text text-anchor="start" x="178" y="-205.6" font-family="Times,serif" font-size="13.00">Migration version: 20150604173233</text>
<text text-anchor="start" x="178" y="-191.6" font-family="Times,serif" font-size="13.00">Generated by RailRoady 1.3.0</text>
<text text-anchor="start" x="178" y="-177.6" font-family="Times,serif" font-size="13.00">http://railroady.prestonlee.com</text>
</g>
<!-- RelationshipsController -->
<g id="node2" class="node"><title>RelationshipsController</title>
<path fill="none" stroke="black" d="M250,237C250,237 378,237 378,237 384,237 390,231 390,225 390,225 390,111 390,111 390,105 384,99 378,99 378,99 250,99 250,99 244,99 238,105 238,111 238,111 238,225 238,225 238,231 244,237 250,237"/>
<text text-anchor="middle" x="314" y="114.2" font-family="Times,serif" font-size="14.00">RelationshipsController</text>
<polyline fill="none" stroke="black" points="238,122 390,122 "/>
<text text-anchor="start" x="246" y="137.2" font-family="Times,serif" font-size="14.00">create</text>
<text text-anchor="start" x="246" y="152.2" font-family="Times,serif" font-size="14.00">star</text>
<text text-anchor="start" x="246" y="167.2" font-family="Times,serif" font-size="14.00">update</text>
<polyline fill="none" stroke="black" points="238,175 390,175 "/>
<polyline fill="none" stroke="black" points="238,199 390,199 "/>
<text text-anchor="start" x="246" y="214.2" font-family="Times,serif" font-size="14.00">_layout</text>
<text text-anchor="start" x="246" y="229.2" font-family="Times,serif" font-size="14.00">relationship_params</text>
</g>
<!-- FriendsController -->
<g id="node3" class="node"><title>FriendsController</title>
<path fill="none" stroke="black" d="M-209,-0.5C-209,-0.5 -115,-0.5 -115,-0.5 -109,-0.5 -103,-6.5 -103,-12.5 -103,-12.5 -103,-111.5 -103,-111.5 -103,-117.5 -109,-123.5 -115,-123.5 -115,-123.5 -209,-123.5 -209,-123.5 -215,-123.5 -221,-117.5 -221,-111.5 -221,-111.5 -221,-12.5 -221,-12.5 -221,-6.5 -215,-0.5 -209,-0.5"/>
<text text-anchor="middle" x="-162" y="-108.3" font-family="Times,serif" font-size="14.00">FriendsController</text>
<polyline fill="none" stroke="black" points="-221,-100.5 -103,-100.5 "/>
<text text-anchor="start" x="-213" y="-85.3" font-family="Times,serif" font-size="14.00">approve</text>
<text text-anchor="start" x="-213" y="-70.3" font-family="Times,serif" font-size="14.00">index</text>
<text text-anchor="start" x="-213" y="-55.3" font-family="Times,serif" font-size="14.00">invite</text>
<polyline fill="none" stroke="black" points="-221,-47.5 -103,-47.5 "/>
<polyline fill="none" stroke="black" points="-221,-23.5 -103,-23.5 "/>
<text text-anchor="start" x="-213" y="-8.3" font-family="Times,serif" font-size="14.00">_layout</text>
</g>
<!-- ShelvesController -->
<g id="node4" class="node"><title>ShelvesController</title>
<path fill="none" stroke="black" d="M97.5,84.5C97.5,84.5 192.5,84.5 192.5,84.5 198.5,84.5 204.5,78.5 204.5,72.5 204.5,72.5 204.5,-116.5 204.5,-116.5 204.5,-122.5 198.5,-128.5 192.5,-128.5 192.5,-128.5 97.5,-128.5 97.5,-128.5 91.5,-128.5 85.5,-122.5 85.5,-116.5 85.5,-116.5 85.5,72.5 85.5,72.5 85.5,78.5 91.5,84.5 97.5,84.5"/>
<text text-anchor="middle" x="145" y="-113.3" font-family="Times,serif" font-size="14.00">ShelvesController</text>
<polyline fill="none" stroke="black" points="85.5,-105.5 204.5,-105.5 "/>
<text text-anchor="start" x="93.5" y="-90.3" font-family="Times,serif" font-size="14.00">create</text>
<text text-anchor="start" x="93.5" y="-75.3" font-family="Times,serif" font-size="14.00">destroy</text>
<text text-anchor="start" x="93.5" y="-60.3" font-family="Times,serif" font-size="14.00">edit</text>
<text text-anchor="start" x="93.5" y="-45.3" font-family="Times,serif" font-size="14.00">index</text>
<text text-anchor="start" x="93.5" y="-30.3" font-family="Times,serif" font-size="14.00">new</text>
<text text-anchor="start" x="93.5" y="-15.3" font-family="Times,serif" font-size="14.00">show</text>
<text text-anchor="start" x="93.5" y="-0.3" font-family="Times,serif" font-size="14.00">update</text>
<polyline fill="none" stroke="black" points="85.5,7.5 204.5,7.5 "/>
<polyline fill="none" stroke="black" points="85.5,31.5 204.5,31.5 "/>
<text text-anchor="start" x="93.5" y="46.7" font-family="Times,serif" font-size="14.00">_layout</text>
<text text-anchor="start" x="93.5" y="61.7" font-family="Times,serif" font-size="14.00">set_shelf</text>
<text text-anchor="start" x="93.5" y="76.7" font-family="Times,serif" font-size="14.00">shelf_params</text>
</g>
<!-- AuthorsController -->
<g id="node5" class="node"><title>AuthorsController</title>
<path fill="none" stroke="black" d="M-56,118.5C-56,118.5 42,118.5 42,118.5 48,118.5 54,112.5 54,106.5 54,106.5 54,-82.5 54,-82.5 54,-88.5 48,-94.5 42,-94.5 42,-94.5 -56,-94.5 -56,-94.5 -62,-94.5 -68,-88.5 -68,-82.5 -68,-82.5 -68,106.5 -68,106.5 -68,112.5 -62,118.5 -56,118.5"/>
<text text-anchor="middle" x="-7" y="-79.3" font-family="Times,serif" font-size="14.00">AuthorsController</text>
<polyline fill="none" stroke="black" points="-68,-71.5 54,-71.5 "/>
<text text-anchor="start" x="-60" y="-56.3" font-family="Times,serif" font-size="14.00">create</text>
<text text-anchor="start" x="-60" y="-41.3" font-family="Times,serif" font-size="14.00">destroy</text>
<text text-anchor="start" x="-60" y="-26.3" font-family="Times,serif" font-size="14.00">edit</text>
<text text-anchor="start" x="-60" y="-11.3" font-family="Times,serif" font-size="14.00">index</text>
<text text-anchor="start" x="-60" y="3.7" font-family="Times,serif" font-size="14.00">new</text>
<text text-anchor="start" x="-60" y="18.7" font-family="Times,serif" font-size="14.00">show</text>
<text text-anchor="start" x="-60" y="33.7" font-family="Times,serif" font-size="14.00">update</text>
<polyline fill="none" stroke="black" points="-68,41.5 54,41.5 "/>
<polyline fill="none" stroke="black" points="-68,65.5 54,65.5 "/>
<text text-anchor="start" x="-60" y="80.7" font-family="Times,serif" font-size="14.00">_layout</text>
<text text-anchor="start" x="-60" y="95.7" font-family="Times,serif" font-size="14.00">author_params</text>
<text text-anchor="start" x="-60" y="110.7" font-family="Times,serif" font-size="14.00">set_author</text>
</g>
<!-- BooksController -->
<g id="node6" class="node"><title>BooksController</title>
<path fill="none" stroke="black" d="M-55.5,-136.5C-55.5,-136.5 33.5,-136.5 33.5,-136.5 39.5,-136.5 45.5,-142.5 45.5,-148.5 45.5,-148.5 45.5,-337.5 45.5,-337.5 45.5,-343.5 39.5,-349.5 33.5,-349.5 33.5,-349.5 -55.5,-349.5 -55.5,-349.5 -61.5,-349.5 -67.5,-343.5 -67.5,-337.5 -67.5,-337.5 -67.5,-148.5 -67.5,-148.5 -67.5,-142.5 -61.5,-136.5 -55.5,-136.5"/>
<text text-anchor="middle" x="-11" y="-334.3" font-family="Times,serif" font-size="14.00">BooksController</text>
<polyline fill="none" stroke="black" points="-67.5,-326.5 45.5,-326.5 "/>
<text text-anchor="start" x="-59.5" y="-311.3" font-family="Times,serif" font-size="14.00">create</text>
<text text-anchor="start" x="-59.5" y="-296.3" font-family="Times,serif" font-size="14.00">destroy</text>
<text text-anchor="start" x="-59.5" y="-281.3" font-family="Times,serif" font-size="14.00">edit</text>
<text text-anchor="start" x="-59.5" y="-266.3" font-family="Times,serif" font-size="14.00">index</text>
<text text-anchor="start" x="-59.5" y="-251.3" font-family="Times,serif" font-size="14.00">new</text>
<text text-anchor="start" x="-59.5" y="-236.3" font-family="Times,serif" font-size="14.00">show</text>
<text text-anchor="start" x="-59.5" y="-221.3" font-family="Times,serif" font-size="14.00">update</text>
<polyline fill="none" stroke="black" points="-67.5,-213.5 45.5,-213.5 "/>
<polyline fill="none" stroke="black" points="-67.5,-189.5 45.5,-189.5 "/>
<text text-anchor="start" x="-59.5" y="-174.3" font-family="Times,serif" font-size="14.00">_layout</text>
<text text-anchor="start" x="-59.5" y="-159.3" font-family="Times,serif" font-size="14.00">book_params</text>
<text text-anchor="start" x="-59.5" y="-144.3" font-family="Times,serif" font-size="14.00">set_book</text>
</g>
<!-- UsersController -->
<g id="node7" class="node"><title>UsersController</title>
<path fill="none" stroke="black" d="M-192.5,135C-192.5,135 -109.5,135 -109.5,135 -103.5,135 -97.5,129 -97.5,123 -97.5,123 -97.5,39 -97.5,39 -97.5,33 -103.5,27 -109.5,27 -109.5,27 -192.5,27 -192.5,27 -198.5,27 -204.5,33 -204.5,39 -204.5,39 -204.5,123 -204.5,123 -204.5,129 -198.5,135 -192.5,135"/>
<text text-anchor="middle" x="-151" y="42.2" font-family="Times,serif" font-size="14.00">UsersController</text>
<polyline fill="none" stroke="black" points="-204.5,50 -97.5,50 "/>
<text text-anchor="start" x="-196.5" y="65.2" font-family="Times,serif" font-size="14.00">index</text>
<text text-anchor="start" x="-196.5" y="80.2" font-family="Times,serif" font-size="14.00">show</text>
<polyline fill="none" stroke="black" points="-204.5,88 -97.5,88 "/>
<polyline fill="none" stroke="black" points="-204.5,112 -97.5,112 "/>
<text text-anchor="start" x="-196.5" y="127.2" font-family="Times,serif" font-size="14.00">_layout</text>
</g>
<!-- ApplicationController -->
<g id="node8" class="node"><title>ApplicationController</title>
<path fill="none" stroke="black" d="M250.5,67C250.5,67 369.5,67 369.5,67 375.5,67 381.5,61 381.5,55 381.5,55 381.5,-15 381.5,-15 381.5,-21 375.5,-27 369.5,-27 369.5,-27 250.5,-27 250.5,-27 244.5,-27 238.5,-21 238.5,-15 238.5,-15 238.5,55 238.5,55 238.5,61 244.5,67 250.5,67"/>
<text text-anchor="middle" x="310" y="-11.8" font-family="Times,serif" font-size="14.00">ApplicationController</text>
<polyline fill="none" stroke="black" points="238.5,-4 381.5,-4 "/>
<polyline fill="none" stroke="black" points="238.5,20 381.5,20 "/>
<polyline fill="none" stroke="black" points="238.5,44 381.5,44 "/>
<text text-anchor="start" x="246.5" y="59.2" font-family="Times,serif" font-size="14.00">_layout</text>
</g>
</g>
</svg>
