<?xml version="1.0" encoding="UTF-8" standalone="no"?>
<!DOCTYPE svg PUBLIC "-//W3C//DTD SVG 1.1//EN"
 "http://www.w3.org/Graphics/SVG/1.1/DTD/svg11.dtd">
<!-- Generated by graphviz version 2.38.0 (20140413.2041)
 -->
<!-- Title: models_diagram Pages: 1 -->
<svg width="833pt" height="232pt"
 viewBox="0.00 0.00 832.70 232.00" xmlns="http://www.w3.org/2000/svg" xmlns:xlink="http://www.w3.org/1999/xlink">
<g id="graph0" class="graph" transform="scale(1 1) rotate(0) translate(4 228)">
<title>models_diagram</title>
<polygon fill="white" stroke="none" points="-4,4 -4,-228 828.696,-228 828.696,4 -4,4"/>
<!-- _diagram_info -->
<g id="node1" class="node"><title>_diagram_info</title>
<text text-anchor="start" x="8" y="-209.6" font-family="Times,serif" font-size="13.00">Models diagram</text>
<text text-anchor="start" x="8" y="-195.6" font-family="Times,serif" font-size="13.00">Date: Jun 06 2015 &#45; 19:33</text>
<text text-anchor="start" x="8" y="-181.6" font-family="Times,serif" font-size="13.00">Migration version: 20150604173233</text>
<text text-anchor="start" x="8" y="-167.6" font-family="Times,serif" font-size="13.00">Generated by RailRoady 1.3.0</text>
<text text-anchor="start" x="8" y="-153.6" font-family="Times,serif" font-size="13.00">http://railroady.prestonlee.com</text>
</g>
<!-- Relationship -->
<g id="node2" class="node"><title>Relationship</title>
<ellipse fill="none" stroke="black" cx="296" cy="-18" rx="57.6901" ry="18"/>
<text text-anchor="middle" x="296" y="-14.3" font-family="Times,serif" font-size="14.00">Relationship</text>
</g>
<!-- Book -->
<g id="node3" class="node"><title>Book</title>
<ellipse fill="none" stroke="black" cx="264" cy="-185" rx="31.6951" ry="18"/>
<text text-anchor="middle" x="264" y="-181.3" font-family="Times,serif" font-size="14.00">Book</text>
</g>
<!-- Book&#45;&gt;Relationship -->
<g id="edge3" class="edge"><title>Book&#45;&gt;Relationship</title>
<path fill="none" stroke="#821cbb" d="M268.862,-158.932C274.743,-128.605 284.61,-77.7285 290.687,-46.3938"/>
<ellipse fill="none" stroke="#821cbb" cx="268.066" cy="-163.037" rx="4.00001" ry="4.00001"/>
<polygon fill="#821cbb" stroke="#821cbb" points="290.762,-46.008 297.084,-37.0477 291.714,-41.0995 292.666,-36.1909 292.666,-36.1909 292.666,-36.1909 291.714,-41.0995 288.248,-35.3342 290.762,-46.008 290.762,-46.008"/>
</g>
<!-- Author -->
<g id="node5" class="node"><title>Author</title>
<ellipse fill="none" stroke="black" cx="231" cy="-91" rx="37.8943" ry="18"/>
<text text-anchor="middle" x="231" y="-87.3" font-family="Times,serif" font-size="14.00">Author</text>
</g>
<!-- Book&#45;&gt;Author -->
<g id="edge2" class="edge"><title>Book&#45;&gt;Author</title>
<path fill="none" stroke="#6cbd0a" d="M254.498,-157.509C250.13,-145.332 244.959,-130.916 240.582,-118.712"/>
<polygon fill="#6cbd0a" stroke="#6cbd0a" points="254.571,-157.713 253.712,-168.645 256.259,-162.419 257.947,-167.126 257.947,-167.126 257.947,-167.126 256.259,-162.419 262.183,-165.606 254.571,-157.713 254.571,-157.713"/>
<polygon fill="#6cbd0a" stroke="#6cbd0a" points="240.502,-118.492 241.362,-107.559 238.814,-113.785 237.126,-109.079 237.126,-109.079 237.126,-109.079 238.814,-113.785 232.89,-110.598 240.502,-118.492 240.502,-118.492"/>
</g>
<!-- Authorship -->
<g id="node6" class="node"><title>Authorship</title>
<ellipse fill="none" stroke="black" cx="166" cy="-18" rx="53.0913" ry="18"/>
<text text-anchor="middle" x="166" y="-14.3" font-family="Times,serif" font-size="14.00">Authorship</text>
</g>
<!-- Book&#45;&gt;Authorship -->
<g id="edge1" class="edge"><title>Book&#45;&gt;Authorship</title>
<path fill="none" stroke="#3d82fc" d="M241.92,-163.451C218.408,-141.547 184.483,-109.869 184,-109 173.318,-89.792 168.922,-65.1558 167.138,-46.5166"/>
<ellipse fill="none" stroke="#3d82fc" cx="245.016" cy="-166.334" rx="4.00002" ry="4.00002"/>
<polygon fill="#3d82fc" stroke="#3d82fc" points="167.121,-46.2926 170.85,-35.98 166.742,-41.307 166.362,-36.3214 166.362,-36.3214 166.362,-36.3214 166.742,-41.307 161.875,-36.6629 167.121,-46.2926 167.121,-46.2926"/>
</g>
<!-- User -->
<g id="node7" class="node"><title>User</title>
<ellipse fill="none" stroke="black" cx="492" cy="-91" rx="27.8951" ry="18"/>
<text text-anchor="middle" x="492" y="-87.3" font-family="Times,serif" font-size="14.00">User</text>
</g>
<!-- Book&#45;&gt;User -->
<g id="edge4" class="edge"><title>Book&#45;&gt;User</title>
<path fill="none" stroke="#71ef48" d="M298.764,-169.972C342.521,-152.316 417.094,-122.225 459.67,-105.045"/>
<polygon fill="#71ef48" stroke="#71ef48" points="298.545,-170.061 287.587,-169.63 293.908,-171.932 289.271,-173.803 289.271,-173.803 289.271,-173.803 293.908,-171.932 290.955,-177.976 298.545,-170.061 298.545,-170.061"/>
<polygon fill="#71ef48" stroke="#71ef48" points="459.734,-105.02 470.691,-105.451 464.37,-103.149 469.007,-101.278 469.007,-101.278 469.007,-101.278 464.37,-103.149 467.323,-97.1047 459.734,-105.02 459.734,-105.02"/>
</g>
<!-- Shelf -->
<g id="node4" class="node"><title>Shelf</title>
<ellipse fill="none" stroke="black" cx="675" cy="-18" rx="30.5947" ry="18"/>
<text text-anchor="middle" x="675" y="-14.3" font-family="Times,serif" font-size="14.00">Shelf</text>
</g>
<!-- Author&#45;&gt;Authorship -->
<g id="edge5" class="edge"><title>Author&#45;&gt;Authorship</title>
<path fill="none" stroke="#0503fc" d="M211.155,-68.3233C203.88,-60.3764 195.602,-51.3342 188.138,-43.1816"/>
<ellipse fill="none" stroke="#0503fc" cx="213.873" cy="-71.2924" rx="4.00002" ry="4.00002"/>
<polygon fill="#0503fc" stroke="#0503fc" points="188.044,-43.0783 184.61,-32.6638 184.667,-39.3904 181.291,-35.7024 181.291,-35.7024 181.291,-35.7024 184.667,-39.3904 177.972,-38.7411 188.044,-43.0783 188.044,-43.0783"/>
</g>
<!-- User&#45;&gt;Relationship -->
<g id="edge7" class="edge"><title>User&#45;&gt;Relationship</title>
<path fill="none" stroke="#725d61" d="M460.406,-78.5552C428.262,-66.9112 378.121,-48.7478 341.659,-35.5399"/>
<ellipse fill="none" stroke="#725d61" cx="464.206" cy="-79.9316" rx="4.00001" ry="4.00001"/>
<polygon fill="#725d61" stroke="#725d61" points="341.637,-35.5319 333.768,-27.895 336.936,-33.8289 332.235,-32.1259 332.235,-32.1259 332.235,-32.1259 336.936,-33.8289 330.702,-36.3569 341.637,-35.5319 341.637,-35.5319"/>
</g>
<!-- User&#45;&gt;Shelf -->
<g id="edge6" class="edge"><title>User&#45;&gt;Shelf</title>
<path fill="none" stroke="#7d2271" d="M523.68,-78.4585C552.753,-67.7672 596.952,-51.2615 635,-36 637.186,-35.123 639.434,-34.2071 641.696,-33.2749"/>
<ellipse fill="none" stroke="#7d2271" cx="519.654" cy="-79.9359" rx="4.00001" ry="4.00001"/>
<polygon fill="#7d2271" stroke="#7d2271" points="641.725,-33.2627 652.687,-33.56 646.339,-31.3353 650.953,-29.4078 650.953,-29.4078 650.953,-29.4078 646.339,-31.3353 649.218,-25.2556 641.725,-33.2627 641.725,-33.2627"/>
</g>
<!-- User&#45;&gt;User -->
<g id="edge11" class="edge"><title>User&#45;&gt;User</title>
<path fill="none" stroke="#8c0c4c" d="M528.235,-97.2124C534.002,-96.3008 537.948,-94.23 537.948,-91 537.948,-87.77 534.002,-85.6992 528.235,-84.7876"/>
<polygon fill="#8c0c4c" stroke="#8c0c4c" points="527.968,-97.2247 517.77,-93.1956 522.974,-97.4577 517.979,-97.6907 517.979,-97.6907 517.979,-97.6907 522.974,-97.4577 518.189,-102.186 527.968,-97.2247 527.968,-97.2247"/>
<polygon fill="#8c0c4c" stroke="#8c0c4c" points="527.968,-84.7753 518.189,-79.8142 522.974,-84.5423 517.979,-84.3093 517.979,-84.3093 517.979,-84.3093 522.974,-84.5423 517.77,-88.8044 527.968,-84.7753 527.968,-84.7753"/>
<text text-anchor="middle" x="585.448" y="-87.3" font-family="Times,serif" font-size="14.00">pending_invited</text>
</g>
<!-- Friendship -->
<g id="node8" class="node"><title>Friendship</title>
<ellipse fill="none" stroke="black" cx="774" cy="-18" rx="50.8918" ry="18"/>
<text text-anchor="middle" x="774" y="-14.3" font-family="Times,serif" font-size="14.00">Friendship</text>
</g>
<!-- User&#45;&gt;Friendship -->
<g id="edge9" class="edge"><title>User&#45;&gt;Friendship</title>
<path fill="none" stroke="#4cd7f8" d="M525.867,-82.2764C569.667,-72.1781 648.26,-53.6871 715,-36 718.775,-34.9994 722.679,-33.9371 726.596,-32.851"/>
<ellipse fill="none" stroke="#4cd7f8" cx="521.742" cy="-83.2251" rx="4.00001" ry="4.00001"/>
<polygon fill="#4cd7f8" stroke="#4cd7f8" points="726.67,-32.8302 737.515,-34.4566 731.484,-31.4774 736.297,-30.1245 736.297,-30.1245 736.297,-30.1245 731.484,-31.4774 735.08,-25.7923 726.67,-32.8302 726.67,-32.8302"/>
</g>
<!-- Activity -->
<g id="node9" class="node"><title>Activity</title>
<ellipse fill="none" stroke="black" cx="413" cy="-18" rx="40.8928" ry="18"/>
<text text-anchor="middle" x="413" y="-14.3" font-family="Times,serif" font-size="14.00">Activity</text>
</g>
<!-- User&#45;&gt;Activity -->
<g id="edge8" class="edge"><title>User&#45;&gt;Activity</title>
<path fill="none" stroke="#1a11fd" d="M470.118,-70.3341C460.085,-61.3168 448.144,-50.5852 437.781,-41.2713"/>
<ellipse fill="none" stroke="#1a11fd" cx="473.417" cy="-73.2989" rx="4.00002" ry="4.00002"/>
<polygon fill="#1a11fd" stroke="#1a11fd" points="437.659,-41.1616 433.229,-31.1301 433.94,-37.8193 430.221,-34.4771 430.221,-34.4771 430.221,-34.4771 433.94,-37.8193 427.213,-37.824 437.659,-41.1616 437.659,-41.1616"/>
</g>
<!-- InverseFriendship -->
<g id="node10" class="node"><title>InverseFriendship</title>
<ellipse fill="none" stroke="black" cx="549" cy="-18" rx="77.1866" ry="18"/>
<text text-anchor="middle" x="549" y="-14.3" font-family="Times,serif" font-size="14.00">InverseFriendship</text>
</g>
<!-- User&#45;&gt;InverseFriendship -->
<g id="edge10" class="edge"><title>User&#45;&gt;InverseFriendship</title>
<path fill="none" stroke="#84390a" d="M509.595,-68.0835C515.778,-60.382 522.767,-51.676 529.124,-43.7574"/>
<ellipse fill="none" stroke="#84390a" cx="506.872" cy="-71.4749" rx="4.00002" ry="4.00002"/>
<polygon fill="#84390a" stroke="#84390a" points="529.2,-43.6634 538.969,-38.6826 532.33,-39.7644 535.46,-35.8654 535.46,-35.8654 535.46,-35.8654 532.33,-39.7644 531.951,-33.0482 529.2,-43.6634 529.2,-43.6634"/>
</g>
</g>
</svg>
