<?xml version="1.0" encoding="UTF-8" standalone="no"?>
<!DOCTYPE svg PUBLIC "-//W3C//DTD SVG 1.1//EN"
 "http://www.w3.org/Graphics/SVG/1.1/DTD/svg11.dtd">
<!-- Generated by graphviz version 2.38.0 (20140413.2041)
 -->
<!-- Title: models_diagram Pages: 1 -->
<svg width="1051pt" height="658pt"
 viewBox="0.00 0.00 1050.50 658.00" xmlns="http://www.w3.org/2000/svg" xmlns:xlink="http://www.w3.org/1999/xlink">
<g id="graph0" class="graph" transform="scale(1 1) rotate(0) translate(4 654)">
<title>models_diagram</title>
<polygon fill="white" stroke="none" points="-4,4 -4,-654 1046.5,-654 1046.5,4 -4,4"/>
<!-- _diagram_info -->
<g id="node1" class="node"><title>_diagram_info</title>
<text text-anchor="start" x="8" y="-583.6" font-family="Times,serif" font-size="13.00">Models diagram</text>
<text text-anchor="start" x="8" y="-569.6" font-family="Times,serif" font-size="13.00">Date: Jun 06 2015 &#45; 19:33</text>
<text text-anchor="start" x="8" y="-555.6" font-family="Times,serif" font-size="13.00">Migration version: 20150604173233</text>
<text text-anchor="start" x="8" y="-541.6" font-family="Times,serif" font-size="13.00">Generated by RailRoady 1.3.0</text>
<text text-anchor="start" x="8" y="-527.6" font-family="Times,serif" font-size="13.00">http://railroady.prestonlee.com</text>
</g>
<!-- Relationship -->
<g id="node2" class="node"><title>Relationship</title>
<path fill="none" stroke="black" d="M283.5,-0.5C283.5,-0.5 394.5,-0.5 394.5,-0.5 400.5,-0.5 406.5,-6.5 406.5,-12.5 406.5,-12.5 406.5,-154.5 406.5,-154.5 406.5,-160.5 400.5,-166.5 394.5,-166.5 394.5,-166.5 283.5,-166.5 283.5,-166.5 277.5,-166.5 271.5,-160.5 271.5,-154.5 271.5,-154.5 271.5,-12.5 271.5,-12.5 271.5,-6.5 277.5,-0.5 283.5,-0.5"/>
<text text-anchor="middle" x="339" y="-151.3" font-family="Times,serif" font-size="14.00">Relationship</text>
<polyline fill="none" stroke="black" points="271.5,-143.5 406.5,-143.5 "/>
<text text-anchor="start" x="279.5" y="-128.3" font-family="Times,serif" font-size="14.00">id :integer</text>
<text text-anchor="start" x="279.5" y="-113.3" font-family="Times,serif" font-size="14.00">user_id :integer</text>
<text text-anchor="start" x="279.5" y="-98.3" font-family="Times,serif" font-size="14.00">book_id :integer</text>
<text text-anchor="start" x="279.5" y="-83.3" font-family="Times,serif" font-size="14.00">shelf_id :integer</text>
<text text-anchor="start" x="279.5" y="-68.3" font-family="Times,serif" font-size="14.00">feeling :string</text>
<text text-anchor="start" x="279.5" y="-53.3" font-family="Times,serif" font-size="14.00">created_at :datetime</text>
<text text-anchor="start" x="279.5" y="-38.3" font-family="Times,serif" font-size="14.00">updated_at :datetime</text>
<text text-anchor="start" x="279.5" y="-23.3" font-family="Times,serif" font-size="14.00">review :text</text>
<text text-anchor="start" x="279.5" y="-8.3" font-family="Times,serif" font-size="14.00">favourite :boolean</text>
</g>
<!-- Book -->
<g id="node3" class="node"><title>Book</title>
<path fill="none" stroke="black" d="M244,-468.5C244,-468.5 358,-468.5 358,-468.5 364,-468.5 370,-474.5 370,-480.5 370,-480.5 370,-637.5 370,-637.5 370,-643.5 364,-649.5 358,-649.5 358,-649.5 244,-649.5 244,-649.5 238,-649.5 232,-643.5 232,-637.5 232,-637.5 232,-480.5 232,-480.5 232,-474.5 238,-468.5 244,-468.5"/>
<text text-anchor="middle" x="301" y="-634.3" font-family="Times,serif" font-size="14.00">Book</text>
<polyline fill="none" stroke="black" points="232,-626.5 370,-626.5 "/>
<text text-anchor="start" x="240" y="-611.3" font-family="Times,serif" font-size="14.00">id :integer</text>
<text text-anchor="start" x="240" y="-596.3" font-family="Times,serif" font-size="14.00">title :string</text>
<text text-anchor="start" x="240" y="-581.3" font-family="Times,serif" font-size="14.00">description :string</text>
<text text-anchor="start" x="240" y="-566.3" font-family="Times,serif" font-size="14.00">isbn :string</text>
<text text-anchor="start" x="240" y="-551.3" font-family="Times,serif" font-size="14.00">lang :string</text>
<text text-anchor="start" x="240" y="-536.3" font-family="Times,serif" font-size="14.00">page_count :integer</text>
<text text-anchor="start" x="240" y="-521.3" font-family="Times,serif" font-size="14.00">published_in :integer</text>
<text text-anchor="start" x="240" y="-506.3" font-family="Times,serif" font-size="14.00">published_by :string</text>
<text text-anchor="start" x="240" y="-491.3" font-family="Times,serif" font-size="14.00">created_at :datetime</text>
<text text-anchor="start" x="240" y="-476.3" font-family="Times,serif" font-size="14.00">updated_at :datetime</text>
</g>
<!-- Book&#45;&gt;Relationship -->
<g id="edge3" class="edge"><title>Book&#45;&gt;Relationship</title>
<path fill="none" stroke="#89ea8b" d="M324.472,-460.286C326.258,-450.436 327.82,-440.548 329,-431 339.585,-345.324 341.448,-246.871 341.039,-176.859"/>
<ellipse fill="none" stroke="#89ea8b" cx="323.732" cy="-464.238" rx="4.00001" ry="4.00001"/>
<polygon fill="#89ea8b" stroke="#89ea8b" points="341.038,-176.74 345.463,-166.707 341.001,-171.74 340.963,-166.74 340.963,-166.74 340.963,-166.74 341.001,-171.74 336.463,-166.774 341.038,-176.74 341.038,-176.74"/>
</g>
<!-- Author -->
<g id="node5" class="node"><title>Author</title>
<path fill="none" stroke="black" d="M197.5,-249.5C197.5,-249.5 308.5,-249.5 308.5,-249.5 314.5,-249.5 320.5,-255.5 320.5,-261.5 320.5,-261.5 320.5,-373.5 320.5,-373.5 320.5,-379.5 314.5,-385.5 308.5,-385.5 308.5,-385.5 197.5,-385.5 197.5,-385.5 191.5,-385.5 185.5,-379.5 185.5,-373.5 185.5,-373.5 185.5,-261.5 185.5,-261.5 185.5,-255.5 191.5,-249.5 197.5,-249.5"/>
<text text-anchor="middle" x="253" y="-370.3" font-family="Times,serif" font-size="14.00">Author</text>
<polyline fill="none" stroke="black" points="185.5,-362.5 320.5,-362.5 "/>
<text text-anchor="start" x="193.5" y="-347.3" font-family="Times,serif" font-size="14.00">id :integer</text>
<text text-anchor="start" x="193.5" y="-332.3" font-family="Times,serif" font-size="14.00">name :string</text>
<text text-anchor="start" x="193.5" y="-317.3" font-family="Times,serif" font-size="14.00">nationality :string</text>
<text text-anchor="start" x="193.5" y="-302.3" font-family="Times,serif" font-size="14.00">born :date</text>
<text text-anchor="start" x="193.5" y="-287.3" font-family="Times,serif" font-size="14.00">died :date</text>
<text text-anchor="start" x="193.5" y="-272.3" font-family="Times,serif" font-size="14.00">created_at :datetime</text>
<text text-anchor="start" x="193.5" y="-257.3" font-family="Times,serif" font-size="14.00">updated_at :datetime</text>
</g>
<!-- Book&#45;&gt;Author -->
<g id="edge2" class="edge"><title>Book&#45;&gt;Author</title>
<path fill="none" stroke="#4971f0" d="M281.048,-458.447C276.855,-437.527 272.492,-415.759 268.492,-395.799"/>
<polygon fill="#4971f0" stroke="#4971f0" points="281.093,-458.673 278.646,-469.363 282.076,-463.576 283.058,-468.478 283.058,-468.478 283.058,-468.478 282.076,-463.576 287.471,-467.594 281.093,-458.673 281.093,-458.673"/>
<polygon fill="#4971f0" stroke="#4971f0" points="268.463,-395.655 270.91,-384.966 267.481,-390.753 266.498,-385.85 266.498,-385.85 266.498,-385.85 267.481,-390.753 262.086,-386.735 268.463,-395.655 268.463,-395.655"/>
</g>
<!-- Authorship -->
<g id="node6" class="node"><title>Authorship</title>
<path fill="none" stroke="black" d="M120.5,-30.5C120.5,-30.5 231.5,-30.5 231.5,-30.5 237.5,-30.5 243.5,-36.5 243.5,-42.5 243.5,-42.5 243.5,-124.5 243.5,-124.5 243.5,-130.5 237.5,-136.5 231.5,-136.5 231.5,-136.5 120.5,-136.5 120.5,-136.5 114.5,-136.5 108.5,-130.5 108.5,-124.5 108.5,-124.5 108.5,-42.5 108.5,-42.5 108.5,-36.5 114.5,-30.5 120.5,-30.5"/>
<text text-anchor="middle" x="176" y="-121.3" font-family="Times,serif" font-size="14.00">Authorship</text>
<polyline fill="none" stroke="black" points="108.5,-113.5 243.5,-113.5 "/>
<text text-anchor="start" x="116.5" y="-98.3" font-family="Times,serif" font-size="14.00">id :integer</text>
<text text-anchor="start" x="116.5" y="-83.3" font-family="Times,serif" font-size="14.00">author_id :integer</text>
<text text-anchor="start" x="116.5" y="-68.3" font-family="Times,serif" font-size="14.00">book_id :integer</text>
<text text-anchor="start" x="116.5" y="-53.3" font-family="Times,serif" font-size="14.00">created_at :datetime</text>
<text text-anchor="start" x="116.5" y="-38.3" font-family="Times,serif" font-size="14.00">updated_at :datetime</text>
</g>
<!-- Book&#45;&gt;Authorship -->
<g id="edge1" class="edge"><title>Book&#45;&gt;Authorship</title>
<path fill="none" stroke="#6ffb47" d="M226.088,-470.979C225.058,-469.975 224.029,-468.981 223,-468 203.763,-449.65 187.61,-454.916 176,-431 131.777,-339.904 145.712,-218.792 160.442,-146.525"/>
<ellipse fill="none" stroke="#6ffb47" cx="229.146" cy="-474.019" rx="4.00002" ry="4.00002"/>
<polygon fill="#6ffb47" stroke="#6ffb47" points="160.458,-146.445 166.923,-137.588 161.489,-141.553 162.519,-136.66 162.519,-136.66 162.519,-136.66 161.489,-141.553 158.116,-135.733 160.458,-146.445 160.458,-146.445"/>
</g>
<!-- User -->
<g id="node7" class="node"><title>User</title>
<path fill="none" stroke="black" d="M494,-204.5C494,-204.5 676,-204.5 676,-204.5 682,-204.5 688,-210.5 688,-216.5 688,-216.5 688,-418.5 688,-418.5 688,-424.5 682,-430.5 676,-430.5 676,-430.5 494,-430.5 494,-430.5 488,-430.5 482,-424.5 482,-418.5 482,-418.5 482,-216.5 482,-216.5 482,-210.5 488,-204.5 494,-204.5"/>
<text text-anchor="middle" x="585" y="-415.3" font-family="Times,serif" font-size="14.00">User</text>
<polyline fill="none" stroke="black" points="482,-407.5 688,-407.5 "/>
<text text-anchor="start" x="490" y="-392.3" font-family="Times,serif" font-size="14.00">id :integer</text>
<text text-anchor="start" x="490" y="-377.3" font-family="Times,serif" font-size="14.00">email :string</text>
<text text-anchor="start" x="490" y="-362.3" font-family="Times,serif" font-size="14.00">encrypted_password :string</text>
<text text-anchor="start" x="490" y="-347.3" font-family="Times,serif" font-size="14.00">reset_password_token :string</text>
<text text-anchor="start" x="490" y="-332.3" font-family="Times,serif" font-size="14.00">reset_password_sent_at :datetime</text>
<text text-anchor="start" x="490" y="-317.3" font-family="Times,serif" font-size="14.00">remember_created_at :datetime</text>
<text text-anchor="start" x="490" y="-302.3" font-family="Times,serif" font-size="14.00">sign_in_count :integer</text>
<text text-anchor="start" x="490" y="-287.3" font-family="Times,serif" font-size="14.00">current_sign_in_at :datetime</text>
<text text-anchor="start" x="490" y="-272.3" font-family="Times,serif" font-size="14.00">last_sign_in_at :datetime</text>
<text text-anchor="start" x="490" y="-257.3" font-family="Times,serif" font-size="14.00">current_sign_in_ip :string</text>
<text text-anchor="start" x="490" y="-242.3" font-family="Times,serif" font-size="14.00">last_sign_in_ip :string</text>
<text text-anchor="start" x="490" y="-227.3" font-family="Times,serif" font-size="14.00">created_at :datetime</text>
<text text-anchor="start" x="490" y="-212.3" font-family="Times,serif" font-size="14.00">updated_at :datetime</text>
</g>
<!-- Book&#45;&gt;User -->
<g id="edge4" class="edge"><title>Book&#45;&gt;User</title>
<path fill="none" stroke="#fdbe4b" d="M378.112,-492.971C407.704,-468.016 442.085,-439.021 474.222,-411.92"/>
<polygon fill="#fdbe4b" stroke="#fdbe4b" points="377.756,-493.271 367.21,-496.278 373.933,-496.495 370.111,-499.718 370.111,-499.718 370.111,-499.718 373.933,-496.495 373.012,-503.158 377.756,-493.271 377.756,-493.271"/>
<polygon fill="#fdbe4b" stroke="#fdbe4b" points="474.26,-411.888 484.805,-408.882 478.082,-408.665 481.904,-405.442 481.904,-405.442 481.904,-405.442 478.082,-408.665 479.003,-402.002 474.26,-411.888 474.26,-411.888"/>
</g>
<!-- Shelf -->
<g id="node4" class="node"><title>Shelf</title>
<path fill="none" stroke="black" d="M762.5,-23C762.5,-23 873.5,-23 873.5,-23 879.5,-23 885.5,-29 885.5,-35 885.5,-35 885.5,-132 885.5,-132 885.5,-138 879.5,-144 873.5,-144 873.5,-144 762.5,-144 762.5,-144 756.5,-144 750.5,-138 750.5,-132 750.5,-132 750.5,-35 750.5,-35 750.5,-29 756.5,-23 762.5,-23"/>
<text text-anchor="middle" x="818" y="-128.8" font-family="Times,serif" font-size="14.00">Shelf</text>
<polyline fill="none" stroke="black" points="750.5,-121 885.5,-121 "/>
<text text-anchor="start" x="758.5" y="-105.8" font-family="Times,serif" font-size="14.00">id :integer</text>
<text text-anchor="start" x="758.5" y="-90.8" font-family="Times,serif" font-size="14.00">name :string</text>
<text text-anchor="start" x="758.5" y="-75.8" font-family="Times,serif" font-size="14.00">user_id :integer</text>
<text text-anchor="start" x="758.5" y="-60.8" font-family="Times,serif" font-size="14.00">system :boolean</text>
<text text-anchor="start" x="758.5" y="-45.8" font-family="Times,serif" font-size="14.00">created_at :datetime</text>
<text text-anchor="start" x="758.5" y="-30.8" font-family="Times,serif" font-size="14.00">updated_at :datetime</text>
</g>
<!-- Author&#45;&gt;Authorship -->
<g id="edge5" class="edge"><title>Author&#45;&gt;Authorship</title>
<path fill="none" stroke="#f5e567" d="M228.182,-241.724C217.966,-210.944 206.273,-175.713 196.549,-146.413"/>
<ellipse fill="none" stroke="#f5e567" cx="229.468" cy="-245.6" rx="4.00001" ry="4.00001"/>
<polygon fill="#f5e567" stroke="#f5e567" points="196.481,-146.21 197.602,-135.301 194.906,-141.464 193.331,-136.719 193.331,-136.719 193.331,-136.719 194.906,-141.464 189.06,-138.136 196.481,-146.21 196.481,-146.21"/>
</g>
<!-- User&#45;&gt;Relationship -->
<g id="edge7" class="edge"><title>User&#45;&gt;Relationship</title>
<path fill="none" stroke="#ed9a0e" d="M475.473,-222.35C455.38,-204.311 434.822,-185.326 416,-167 415.324,-166.342 414.647,-165.68 413.968,-165.014"/>
<ellipse fill="none" stroke="#ed9a0e" cx="478.711" cy="-225.249" rx="4.00002" ry="4.00002"/>
<polygon fill="#ed9a0e" stroke="#ed9a0e" points="413.743,-164.79 409.824,-154.549 410.197,-161.265 406.651,-157.74 406.651,-157.74 406.651,-157.74 410.197,-161.265 403.479,-160.931 413.743,-164.79 413.743,-164.79"/>
</g>
<!-- User&#45;&gt;Shelf -->
<g id="edge6" class="edge"><title>User&#45;&gt;Shelf</title>
<path fill="none" stroke="#4756bf" d="M694.016,-213.523C709.916,-198.072 725.981,-182.219 741,-167 745.808,-162.128 750.738,-157.049 755.667,-151.911"/>
<ellipse fill="none" stroke="#4756bf" cx="691.039" cy="-216.41" rx="4.00002" ry="4.00002"/>
<polygon fill="#4756bf" stroke="#4756bf" points="755.97,-151.593 766.129,-147.463 759.422,-147.975 762.873,-144.357 762.873,-144.357 762.873,-144.357 759.422,-147.975 759.617,-141.251 755.97,-151.593 755.97,-151.593"/>
</g>
<!-- User&#45;&gt;User -->
<g id="edge11" class="edge"><title>User&#45;&gt;User</title>
<path fill="none" stroke="#140d4e" d="M697.171,-333.424C702.727,-329.455 706,-324.147 706,-317.5 706,-310.853 702.727,-305.545 697.171,-301.576"/>
<polygon fill="#140d4e" stroke="#140d4e" points="697.162,-333.429 686.211,-334.006 692.717,-335.718 688.272,-338.007 688.272,-338.007 688.272,-338.007 692.717,-335.718 690.332,-342.007 697.162,-333.429 697.162,-333.429"/>
<polygon fill="#140d4e" stroke="#140d4e" points="697.162,-301.571 690.332,-292.993 692.717,-299.282 688.272,-296.993 688.272,-296.993 688.272,-296.993 692.717,-299.282 686.211,-300.994 697.162,-301.571 697.162,-301.571"/>
<text text-anchor="middle" x="753.5" y="-313.8" font-family="Times,serif" font-size="14.00">pending_invited</text>
</g>
<!-- Friendship -->
<g id="node8" class="node"><title>Friendship</title>
<path fill="none" stroke="black" d="M915.5,-30.5C915.5,-30.5 1030.5,-30.5 1030.5,-30.5 1036.5,-30.5 1042.5,-36.5 1042.5,-42.5 1042.5,-42.5 1042.5,-124.5 1042.5,-124.5 1042.5,-130.5 1036.5,-136.5 1030.5,-136.5 1030.5,-136.5 915.5,-136.5 915.5,-136.5 909.5,-136.5 903.5,-130.5 903.5,-124.5 903.5,-124.5 903.5,-42.5 903.5,-42.5 903.5,-36.5 909.5,-30.5 915.5,-30.5"/>
<text text-anchor="middle" x="973" y="-121.3" font-family="Times,serif" font-size="14.00">Friendship</text>
<polyline fill="none" stroke="black" points="903.5,-113.5 1042.5,-113.5 "/>
<text text-anchor="start" x="911.5" y="-98.3" font-family="Times,serif" font-size="14.00">id :integer</text>
<text text-anchor="start" x="911.5" y="-83.3" font-family="Times,serif" font-size="14.00">friendable_id :integer</text>
<text text-anchor="start" x="911.5" y="-68.3" font-family="Times,serif" font-size="14.00">friend_id :integer</text>
<text text-anchor="start" x="911.5" y="-53.3" font-family="Times,serif" font-size="14.00">blocker_id :integer</text>
<text text-anchor="start" x="911.5" y="-38.3" font-family="Times,serif" font-size="14.00">pending :boolean</text>
</g>
<!-- User&#45;&gt;Friendship -->
<g id="edge9" class="edge"><title>User&#45;&gt;Friendship</title>
<path fill="none" stroke="#7483af" d="M695.735,-274.75C757.453,-248.703 833.937,-211.652 895,-167 904.23,-160.251 913.281,-152.325 921.762,-144.101"/>
<ellipse fill="none" stroke="#7483af" cx="691.973" cy="-276.327" rx="4.00002" ry="4.00002"/>
<polygon fill="#7483af" stroke="#7483af" points="921.979,-143.884 932.236,-140.005 925.518,-140.352 929.058,-136.82 929.058,-136.82 929.058,-136.82 925.518,-140.352 925.879,-133.634 921.979,-143.884 921.979,-143.884"/>
</g>
<!-- Activity -->
<g id="node9" class="node"><title>Activity</title>
<path fill="none" stroke="black" d="M436.5,-15.5C436.5,-15.5 547.5,-15.5 547.5,-15.5 553.5,-15.5 559.5,-21.5 559.5,-27.5 559.5,-27.5 559.5,-139.5 559.5,-139.5 559.5,-145.5 553.5,-151.5 547.5,-151.5 547.5,-151.5 436.5,-151.5 436.5,-151.5 430.5,-151.5 424.5,-145.5 424.5,-139.5 424.5,-139.5 424.5,-27.5 424.5,-27.5 424.5,-21.5 430.5,-15.5 436.5,-15.5"/>
<text text-anchor="middle" x="492" y="-136.3" font-family="Times,serif" font-size="14.00">Activity</text>
<polyline fill="none" stroke="black" points="424.5,-128.5 559.5,-128.5 "/>
<text text-anchor="start" x="432.5" y="-113.3" font-family="Times,serif" font-size="14.00">id :integer</text>
<text text-anchor="start" x="432.5" y="-98.3" font-family="Times,serif" font-size="14.00">user_id :integer</text>
<text text-anchor="start" x="432.5" y="-83.3" font-family="Times,serif" font-size="14.00">object_id :integer</text>
<text text-anchor="start" x="432.5" y="-68.3" font-family="Times,serif" font-size="14.00">object_type :string</text>
<text text-anchor="start" x="432.5" y="-53.3" font-family="Times,serif" font-size="14.00">activity_type :string</text>
<text text-anchor="start" x="432.5" y="-38.3" font-family="Times,serif" font-size="14.00">created_at :datetime</text>
<text text-anchor="start" x="432.5" y="-23.3" font-family="Times,serif" font-size="14.00">updated_at :datetime</text>
</g>
<!-- User&#45;&gt;Activity -->
<g id="edge8" class="edge"><title>User&#45;&gt;Activity</title>
<path fill="none" stroke="#0906f9" d="M536.966,-196.672C532.141,-184.636 527.338,-172.655 522.765,-161.248"/>
<ellipse fill="none" stroke="#0906f9" cx="538.51" cy="-200.525" rx="4.00001" ry="4.00001"/>
<polygon fill="#0906f9" stroke="#0906f9" points="522.704,-161.095 523.16,-150.138 520.844,-156.454 518.983,-151.813 518.983,-151.813 518.983,-151.813 520.844,-156.454 514.806,-153.487 522.704,-161.095 522.704,-161.095"/>
</g>
<!-- InverseFriendship -->
<g id="node10" class="node"><title>InverseFriendship</title>
<ellipse fill="none" stroke="black" cx="655" cy="-83.5" rx="77.1866" ry="18"/>
<text text-anchor="middle" x="655" y="-79.8" font-family="Times,serif" font-size="14.00">InverseFriendship</text>
</g>
<!-- User&#45;&gt;InverseFriendship -->
<g id="edge10" class="edge"><title>User&#45;&gt;InverseFriendship</title>
<path fill="none" stroke="#803e6c" d="M621.278,-196.263C630.965,-164.16 640.52,-132.49 646.972,-111.106"/>
<ellipse fill="none" stroke="#803e6c" cx="620.028" cy="-200.408" rx="4.00001" ry="4.00001"/>
<polygon fill="#803e6c" stroke="#803e6c" points="646.989,-111.052 654.186,-102.778 648.433,-106.265 649.877,-101.478 649.877,-101.478 649.877,-101.478 648.433,-106.265 645.569,-100.178 646.989,-111.052 646.989,-111.052"/>
</g>
</g>
</svg>
